<svg xmlns="http://www.w3.org/2000/svg" width="100%" height="100%" viewBox="0 0 1792 1792"><path fill="#000" d="M1792 1344v128q0 26-19 45t-45 19h-1664q-26 0-45-19t-19-45v-128q0-26 19-45t45-19h1664q26 0 45 19t19 45zM1792 960v128q0 26-19 45t-45 19h-1280q-26 0-45-19t-19-45v-128q0-26 19-45t45-19h1280q26 0 45 19t19 45zM1792 576v128q0 26-19 45t-45 19h-1536q-26 0-45-19t-19-45v-128q0-26 19-45t45-19h1536q26 0 45 19t19 45zM1792 192v128q0 26-19 45t-45 19h-1152q-26 0-45-19t-19-45v-128q0-26 19-45t45-19h1152q26 0 45 19t19 45z" /></svg>