<svg xmlns="http://www.w3.org/2000/svg" width="100%" height="100%" viewBox="0 0 1792 1792"><path fill="#000" d="M1792 1344v128q0 26-19 45t-45 19h-1664q-26 0-45-19t-19-45v-128q0-26 19-45t45-19h1664q26 0 45 19t19 45zM1408 960v128q0 26-19 45t-45 19h-896q-26 0-45-19t-19-45v-128q0-26 19-45t45-19h896q26 0 45 19t19 45zM1664 576v128q0 26-19 45t-45 19h-1408q-26 0-45-19t-19-45v-128q0-26 19-45t45-19h1408q26 0 45 19t19 45zM1280 192v128q0 26-19 45t-45 19h-640q-26 0-45-19t-19-45v-128q0-26 19-45t45-19h640q26 0 45 19t19 45z" /></svg>