<svg xmlns="http://www.w3.org/2000/svg" width="100%" height="100%" viewBox="0 0 1536 1792"><path fill="#000" d="M1152 800v192q0 13-9.5 22.5t-22.5 9.5h-352v192q0 14-9 23t-23 9q-12 0-24-10l-319-319q-9-9-9-23t9-23l320-320q9-9 23-9 13 0 22.5 9.5t9.5 22.5v192h352q13 0 22.5 9.5t9.5 22.5zM1312 896q0-148-73-273t-198-198-273-73-273 73-198 198-73 273 73 273 198 198 273 73 273-73 198-198 73-273zM1536 896q0 209-103 385.5t-279.5 279.5-385.5 103-385.5-103-279.5-279.5-103-385.5 103-385.5 279.5-279.5 385.5-103 385.5 103 279.5 279.5 103 385.5z" /></svg>