<svg xmlns="http://www.w3.org/2000/svg" width="100%" height="100%" viewBox="0 0 576 512"><path fill="currentColor" d="M130.9 400C114.1 400 105.8 379.6 117.6 367.8 142.8 342.6 163.7 318.5 168.2 246.3L121.4 205.1A168.5-168.5 0 0 1 121.1 214.9C121.1 296.8 103.6 314.1 86.6 330.9 38.5 378.4 73.7 448 130.9 448H224C224 483.3 252.7 512 288 512S352 483.3 352 448H396.8L342.4 400H130.9zM288 472C274.8 472 264 461.2 264 448H312C312 461.2 301.2 472 288 472zM571.9 472.6L503.9 413C517 388.9 515.5 356.7 489.4 330.9 472.4 314.2 454.9 296.8 454.9 214.9 454.9 131.8 393.9 62.8 314.4 50.1A31.8-31.8 0 0 1 320 32C320 14.3 305.7 0 288 0S256 14.3 256 32A31.8-31.8 0 0 1 261.6 50.1C220.1 56.7 183.7 78.7 158.4 109.9L36.5 3C31.4-1.4 23.7-0.9 19.2 4.1L3.1 22.3C-1.4 27.3-0.9 35 4.1 39.4L539.5 509C544.6 513.4 552.3 512.9 556.8 507.9L572.9 489.7C577.4 484.7 576.9 477 571.9 472.6zM288 96C353.5 96 406.9 149.3 406.9 214.9 406.9 312.5 430.1 339.4 458.4 367.8 461.3 370.7 463 374.1 463.6 377.6L194.5 141.6C216.3 113.9 250.1 96 288 96z" /></svg>