<svg xmlns="http://www.w3.org/2000/svg" width="100%" height="100%" viewBox="0 0 1792 1792"><path fill="#000" d="M63 1536h-63v-1408h63v1408zM126 1535h-32v-1407h32v1407zM220 1535h-31v-1407h31v1407zM377 1535h-31v-1407h31v1407zM534 1535h-62v-1407h62v1407zM660 1535h-31v-1407h31v1407zM723 1535h-31v-1407h31v1407zM786 1535h-31v-1407h31v1407zM943 1535h-63v-1407h63v1407zM1100 1535h-63v-1407h63v1407zM1226 1535h-63v-1407h63v1407zM1352 1535h-63v-1407h63v1407zM1446 1535h-63v-1407h63v1407zM1635 1535h-94v-1407h94v1407zM1698 1535h-32v-1407h32v1407zM1792 1536h-63v-1408h63v1408z" /></svg>