<svg xmlns="http://www.w3.org/2000/svg" width="100%" height="100%" viewBox="0 0 1792 1792"><path fill="#000" d="M928 832q0-14-9-23t-23-9q-66 0-113 47t-47 113q0 14 9 23t23 9 23-9 9-23q0-40 28-68t68-28q14 0 23-9t9-23zM1152 962q0 106-75 181t-181 75-181-75-75-181 75-181 181-75 181 75 75 181zM128 1536h1536v-128h-1536v128zM1280 962q0-159-112.5-271.5t-271.5-112.5-271.5 112.5-112.5 271.5 112.5 271.5 271.5 112.5 271.5-112.5 112.5-271.5zM256 320h384v-128h-384v128zM128 512h1536v-118-138h-828l-64 128h-644v128zM1792 256v1280q0 53-37.5 90.5t-90.5 37.5h-1536q-53 0-90.5-37.5t-37.5-90.5v-1280q0-53 37.5-90.5t90.5-37.5h1536q53 0 90.5 37.5t37.5 90.5z" /></svg>