<svg xmlns="http://www.w3.org/2000/svg" width="100%" height="100%" viewBox="0 0 1536 1792"><path fill="#000" d="M1024 1376v-160q0-14-9-23t-23-9h-96v-512q0-14-9-23t-23-9h-320q-14 0-23 9t-9 23v160q0 14 9 23t23 9h96v320h-96q-14 0-23 9t-9 23v160q0 14 9 23t23 9h448q14 0 23-9t9-23zM896 480v-160q0-14-9-23t-23-9h-192q-14 0-23 9t-9 23v160q0 14 9 23t23 9h192q14 0 23-9t9-23zM1536 896q0 209-103 385.5t-279.5 279.5-385.5 103-385.5-103-279.5-279.5-103-385.5 103-385.5 279.5-279.5 385.5-103 385.5 103 279.5 279.5 103 385.5z" /></svg>