<svg xmlns="http://www.w3.org/2000/svg" width="100%" height="100%" viewBox="0 0 1792 1792"><path fill="#000" d="M384 1408q0 80-56 136t-136 56-136-56-56-136 56-136 136-56 136 56 56 136zM384 896q0 80-56 136t-136 56-136-56-56-136 56-136 136-56 136 56 56 136zM1792 1312v192q0 13-9.5 22.5t-22.5 9.5h-1216q-13 0-22.5-9.5t-9.5-22.5v-192q0-13 9.5-22.5t22.5-9.5h1216q13 0 22.5 9.5t9.5 22.5zM384 384q0 80-56 136t-136 56-136-56-56-136 56-136 136-56 136 56 56 136zM1792 800v192q0 13-9.5 22.5t-22.5 9.5h-1216q-13 0-22.5-9.5t-9.5-22.5v-192q0-13 9.5-22.5t22.5-9.5h1216q13 0 22.5 9.5t9.5 22.5zM1792 288v192q0 13-9.5 22.5t-22.5 9.5h-1216q-13 0-22.5-9.5t-9.5-22.5v-192q0-13 9.5-22.5t22.5-9.5h1216q13 0 22.5 9.5t9.5 22.5z" /></svg>