<svg xmlns="http://www.w3.org/2000/svg" width="100%" height="100%" viewBox="0 0 2304 1792"><path fill="#000" d="M2304 768h-128v640h128v384h-384v-128h-896v128h-384v-384h128v-128h-384v128h-384v-384h128v-640h-128v-384h384v128h896v-128h384v384h-128v128h384v-128h384v384zM2048 512v128h128v-128h-128zM1408 128v128h128v-128h-128zM128 128v128h128v-128h-128zM256 1280v-128h-128v128h128zM1536 1152h-128v128h128v-128zM384 1152h896v-128h128v-640h-128v-128h-896v128h-128v640h128v128zM896 1664v-128h-128v128h128zM2176 1664v-128h-128v128h128zM2048 1408v-640h-128v-128h-384v384h128v384h-384v-128h-384v128h128v128h896v-128h128z" /></svg>