<svg xmlns="http://www.w3.org/2000/svg" width="100%" height="100%" viewBox="0 0 1536 1792"><path fill="#000" d="M1280 1280q0-52-38-90t-90-38-90 38-38 90 38 90 90 38 90-38 38-90zM512 512q0-52-38-90t-90-38-90 38-38 90 38 90 90 38 90-38 38-90zM1536 1280q0 159-112.5 271.5t-271.5 112.5-271.5-112.5-112.5-271.5 112.5-271.5 271.5-112.5 271.5 112.5 112.5 271.5zM1440 192q0 20-13 38l-1056 1408q-19 26-51 26h-160q-26 0-45-19t-19-45q0-20 13-38l1056-1408q19-26 51-26h160q26 0 45 19t19 45zM768 512q0 159-112.5 271.5t-271.5 112.5-271.5-112.5-112.5-271.5 112.5-271.5 271.5-112.5 271.5 112.5 112.5 271.5z" /></svg>