<svg xmlns="http://www.w3.org/2000/svg" width="100%" height="100%" viewBox="0 0 1536 1792"><path fill="#000" d="M352 1408v128h-352v-128h352zM704 1280q26 0 45 19t19 45v256q0 26-19 45t-45 19h-256q-26 0-45-19t-19-45v-256q0-26 19-45t45-19h256zM864 896v128h-864v-128h864zM224 384v128h-224v-128h224zM1536 1408v128h-736v-128h736zM576 256q26 0 45 19t19 45v256q0 26-19 45t-45 19h-256q-26 0-45-19t-19-45v-256q0-26 19-45t45-19h256zM1216 768q26 0 45 19t19 45v256q0 26-19 45t-45 19h-256q-26 0-45-19t-19-45v-256q0-26 19-45t45-19h256zM1536 896v128h-224v-128h224zM1536 384v128h-864v-128h864z" /></svg>