<svg xmlns="http://www.w3.org/2000/svg" width="100%" height="100%" viewBox="0 0 2048 1792"><path fill="#000" d="M0 896q0-130 51-248.5t136.5-204 204-136.5 248.5-51h768q130 0 248.5 51t204 136.5 136.5 204 51 248.5-51 248.5-136.5 204-204 136.5-248.5 51h-768q-130 0-248.5-51t-204-136.5-136.5-204-51-248.5zM1408 1408q104 0 198.5-40.5t163.5-109.5 109.5-163.5 40.5-198.5-40.5-198.5-109.5-163.5-163.5-109.5-198.5-40.5-198.5 40.5-163.5 109.5-109.5 163.5-40.5 198.5 40.5 198.5 109.5 163.5 163.5 109.5 198.5 40.5z" /></svg>