<svg xmlns="http://www.w3.org/2000/svg" width="100%" height="100%" viewBox="0 0 1792 1792"><path fill="#000" d="M512 1248v192q0 40-28 68t-68 28h-320q-40 0-68-28t-28-68v-192q0-40 28-68t68-28h320q40 0 68 28t28 68zM512 736v192q0 40-28 68t-68 28h-320q-40 0-68-28t-28-68v-192q0-40 28-68t68-28h320q40 0 68 28t28 68zM1792 1248v192q0 40-28 68t-68 28h-960q-40 0-68-28t-28-68v-192q0-40 28-68t68-28h960q40 0 68 28t28 68zM512 224v192q0 40-28 68t-68 28h-320q-40 0-68-28t-28-68v-192q0-40 28-68t68-28h320q40 0 68 28t28 68zM1792 736v192q0 40-28 68t-68 28h-960q-40 0-68-28t-28-68v-192q0-40 28-68t68-28h960q40 0 68 28t28 68zM1792 224v192q0 40-28 68t-68 28h-960q-40 0-68-28t-28-68v-192q0-40 28-68t68-28h960q40 0 68 28t28 68z" /></svg>